<?xml version="1.0" encoding="utf-8"?>
<!-- Generator: Adobe Illustrator 16.0.0, SVG Export Plug-In . SVG Version: 6.00 Build 0)  -->
<!DOCTYPE svg PUBLIC "-//W3C//DTD SVG 1.1//EN" "http://www.w3.org/Graphics/SVG/1.1/DTD/svg11.dtd">
<svg version="1.1" id="Shape_3_1_" xmlns="http://www.w3.org/2000/svg" xmlns:xlink="http://www.w3.org/1999/xlink" x="0px" y="0px"
	 width="4295.811px" height="1048px" viewBox="0 0 4295.811 1048" enable-background="new 0 0 4295.811 1048" xml:space="preserve">
<g>
	<path fill="#52AF44" d="M1790.85,527.593c-0.033,0-0.064,0.013-0.096,0.038C1790.832,527.619,1790.879,527.607,1790.85,527.593z"/>
	<path fill="#52AF44" d="M2207.332,566l-0.15-2.681c-7.088-79.314-73.709-141.49-154.865-141.49
		c-85.881,0-155.502,69.623-155.502,155.506c0,81.466,62.645,148.29,142.387,154.952c-14.945,3.066-31.139,4.768-48.684,4.768
		c-181.357,0-203.613-206.238-199.764-209.424c-0.893,0.128-8.266,0.045-8.266,0.045l-132.58,0.416
		c0,0,29.283,319.305,340.609,275.523C2047.828,795.555,2209.139,755.445,2207.332,566z M2054.795,640.664
		c-34.447,0-62.373-27.928-62.373-62.378c0-34.448,27.926-62.375,62.373-62.375s62.373,27.927,62.373,62.375
		C2117.168,612.736,2089.242,640.664,2054.795,640.664z"/>
</g>
<g>
	<path fill="#52AF44" d="M2057.074,300.756c-57.312,8.059-221.049,61.129-219.244,250.571c0,0,12.475,3.5,17.535-11.196
		c17.197-49.948,60.486-172.816,201.709-172.816c182.766,0,199.404,209.462,199.666,209.462c-0.365-0.184,8.357-0.084,8.357-0.084
		l132.584-0.416C2397.682,576.276,2368.398,256.973,2057.074,300.756z"/>
	<polygon fill="#52AF44" points="1890.307,343.769 1793.203,244.833 1763.752,273.742 1860.855,372.679 	"/>
	<polygon fill="#52AF44" points="2052.352,285.271 2048.49,180.11 2007.863,181.164 2012.385,294.901 	"/>
</g>
<polygon fill="#52AF44" points="2297.742,203.122 2236.666,307.752 2272.475,328.267 2333.551,223.636 "/>
<g>
	<path fill="#ffffff" d="M289.835,322.226c0-9.665,6.213-18.057,18.638-25.197c12.426-7.13,25.304-10.7,38.658-10.7
		c16.567,0,26.458,5.986,29.684,17.948L485.883,678.43l58.676-240.23c4.142-16.568,18.865-24.852,44.18-24.852
		c24.851,0,39.348,8.284,43.49,24.852l58.676,240.23l109.069-374.153c3.214-11.962,13.116-17.948,29.684-17.948
		c13.342,0,26.232,3.57,38.657,10.7c12.426,7.141,18.639,15.532,18.639,25.197c0,2.761-0.464,5.522-1.381,8.283L748.892,764.721
		c-6.903,20.256-26.469,30.373-58.676,30.373c-13.806,0-26.232-2.652-37.277-7.938s-17.722-12.771-20.019-22.436l-44.18-186.388
		l-44.87,186.388c-2.309,9.664-8.974,17.15-20.019,22.436c-11.045,5.285-23.471,7.938-37.277,7.938
		c-14.27,0-26.922-2.652-37.967-7.938s-17.948-12.771-20.709-22.436L291.215,330.509
		C290.288,327.748,289.835,324.986,289.835,322.226z"/>
	<path fill="#ffffff" d="M1003.613,762.65V313.941c0-9.201,4.368-16.104,13.116-20.709c8.736-4.595,19.329-6.903,31.754-6.903
		c12.426,0,23.007,2.309,31.755,6.903c8.736,4.606,13.116,11.509,13.116,20.709V762.65c0,8.746-4.488,15.65-13.462,20.709
		c-8.974,5.068-19.447,7.594-31.409,7.594c-12.425,0-23.018-2.525-31.754-7.594C1007.981,778.301,1003.613,771.396,1003.613,762.65z
		"/>
	<path fill="#ffffff" d="M1245.222,763.34V313.941c0-7.356,3.678-13.806,11.045-19.329c7.356-5.522,16.794-8.284,28.303-8.284h122.185
		c49.238,0,88.586,12.663,118.043,37.968c29.445,25.315,44.18,65.354,44.18,120.116v188.458c0,54.773-14.734,94.811-44.18,120.115
		c-29.457,25.316-68.805,37.969-118.043,37.969H1284.57c-11.509,0-20.947-2.762-28.303-8.285
		C1248.9,777.146,1245.222,770.707,1245.222,763.34z M1334.963,712.256h71.792c48.322,0,72.482-26.459,72.482-79.387V444.412
		c0-52.917-24.161-79.387-72.482-79.387h-71.792V712.256z"/>
</g>
<g>
	<path fill="#ffffff" d="M2485.732,637.012v-192.6c0-54.298,14.725-94.229,44.182-119.77c29.445-25.542,67.877-38.313,115.281-38.313
		c48.322,0,87.777,11.973,118.389,35.897c30.6,23.934,45.906,55.688,45.906,95.264c0,17.031-3.453,28.648-10.355,34.861
		c-6.902,6.212-18.412,9.319-34.516,9.319c-29.457,0-44.418-9.427-44.871-28.303c-0.463-5.976-1.035-11.153-1.725-15.532
		c-0.691-4.368-2.535-10.117-5.523-17.258c-2.998-7.13-6.795-13.116-11.389-17.948c-4.605-4.832-11.51-8.974-20.711-12.426
		c-9.211-3.452-20.018-5.177-32.443-5.177c-48.322,0-72.482,26.469-72.482,79.387v192.6c0,52.928,24.613,79.387,73.863,79.387
		c14.723,0,27.029-2.297,36.932-6.904c9.891-4.594,17.02-11.152,21.398-19.674c4.369-8.51,7.357-16.104,8.975-22.779
		c1.607-6.666,2.643-14.842,3.105-24.508c1.381-18.865,16.105-28.303,44.182-28.303c16.104,0,27.719,3.107,34.859,9.32
		c7.131,6.213,10.701,17.84,10.701,34.861c0,41.418-15.307,74.553-45.906,99.404c-30.611,24.852-70.305,37.277-119.08,37.277
		c-47.404,0-85.717-12.77-114.936-38.312C2500.338,731.24,2485.732,691.32,2485.732,637.012z"/>
	<path fill="#ffffff" d="M2877.504,766.102c0-10.117,3.215-20.473,9.666-31.064l205.021-370.012h-174.648c-8.748,0-15.533-3.797-20.365-11.39
		c-4.832-7.594-7.248-16.913-7.248-27.958c0-10.582,2.299-19.782,6.904-27.613c4.594-7.82,11.498-11.735,20.709-11.735h262.318
		c17.947,0,26.922,8.058,26.922,24.161c0,10.128-3.451,20.947-10.355,32.445l-204.332,369.321h198.811
		c8.283,0,15.068,4.035,20.363,12.08c5.285,8.059,7.939,17.15,7.939,27.268c0,10.129-2.654,19.223-7.939,27.268
		c-5.295,8.059-12.08,12.082-20.363,12.082h-286.479C2886.479,790.953,2877.504,782.668,2877.504,766.102z"/>
	<path fill="#ffffff" d="M3328.625,762.65V314.631c0-9.201,4.367-16.222,13.115-21.054c8.736-4.833,19.328-7.249,31.754-7.249
		c16.568,0,29.221,2.999,37.967,8.974c8.738,5.986,18.402,18.876,28.994,38.658l133.23,257.488V313.941
		c0-9.201,4.367-16.104,13.115-20.709c8.736-4.595,19.328-6.903,31.754-6.903s23.008,2.309,31.754,6.903
		c8.738,4.606,13.117,11.509,13.117,20.709V762.65c0,8.746-4.488,15.65-13.461,20.709c-8.975,5.068-19.447,7.594-31.41,7.594
		c-24.398,0-41.656-9.428-51.773-28.303l-148.416-277.51v277.51c0,8.746-4.488,15.65-13.461,20.709
		c-8.975,5.068-19.447,7.594-31.41,7.594c-12.426,0-23.018-2.525-31.754-7.594C3332.992,778.301,3328.625,771.396,3328.625,762.65z"
		/>
	<path fill="#ffffff" d="M3820.291,762.65V313.941c0-9.201,4.369-16.104,13.115-20.709c8.738-4.595,19.33-6.903,31.756-6.903
		s23.006,2.309,31.754,6.903c8.736,4.606,13.115,11.509,13.115,20.709V762.65c0,8.746-4.486,15.65-13.461,20.709
		c-8.975,5.068-19.447,7.594-31.408,7.594c-12.426,0-23.018-2.525-31.756-7.594C3824.66,778.301,3820.291,771.396,3820.291,762.65z"
		/>
</g>
</svg>
